<?xml version="1.0" encoding="UTF-8"?>
<svg id="Layer_1" xmlns="http://www.w3.org/2000/svg" xmlns:xlink="http://www.w3.org/1999/xlink" version="1.1" viewBox="0 0 424.4 687.4">
  <!-- Generator: Adobe Illustrator 29.8.1, SVG Export Plug-In . SVG Version: 2.1.1 Build 2)  -->
  <defs>
    <style>
      .st0 {
        fill: url(#linear-gradient);
      }
    </style>
    <linearGradient id="linear-gradient" x1="212.2" y1="687.4" x2="212.2" y2="0" gradientUnits="userSpaceOnUse">
      <stop offset="0" stop-color="#26bbc0"/>
      <stop offset="1" stop-color="#2099ad"/>
    </linearGradient>
  </defs>
  <path class="st0" d="M243.2,260.1c72-24.8,184-130.4,181.2-214-1.6-15.2-5.2-53.6-77.6-44.8-67.6,8.4-192.4,87.6-252.4,224-40.8-49.2-30-138.4,44-182,26.4-15.2,52-17.2,74.8-8.4,6,2,24.4.4,22.4-16.4-2-12-16.8-10-22.4-9.2C139.6,20.5,52,59.3,45.2,163.7c-.8,39.2,14.8,66.8,40,84-1.6,4.4-3.2,8.8-4.8,13.2-51.6,158.4,50.8,218,105.6,218,44.8,1.2,106-36,144.8-93.2-.8,2.8-1.2,4.8-1.2,4.8-7.2,22.4-26.4,85.2-50,140.4-56.8,130-120,143.6-154.8,146-42.8,3.6-93.6-11.6-92.8-69.2,1.6-80.4,140.8-72,181.6-94.4,17.2-9.6,32-27.6,28.4-30.8l-1.2-.8c-48.8,61.6-214.8,18-238.8,115.2-11.2,44.4,25.6,84.8,97.2,90,137.6,10.4,207.6-155.2,218.8-186,17.2-47.6,72-199.6,72-199.6,0,0,7.6-20.4,18.8-30.4,4.4-4-5.6-4-5.6-4-19.2,1.6-33.2,10-47.2,45.2l-4.8,13.6c-29.2,72.8-97.2,140.8-160.8,139.6-69.2-1.6-104.4-94-70.8-201.6,37.2,11.2,82.8,9.2,123.6-3.6ZM147.2,200.9C221.2,69.3,318.8-.7,362,12.9c43.6,13.2,30,71.2,10.8,105.6-20,34.8-80,140.8-201.6,140.8s-33.2-3.6-46.4-10c6-16,13.2-32.4,22.4-48.4Z"/>
</svg>